Coordinates
version=1
nRows=15
nColumns=27
inDegrees=yes

Units are S.I. units (second, meters, Newtons, ...)
If the header above contains a line with 'inDegrees', this indicates whether rotational values are in degrees (yes) or radians (no).

endheader
time	pelvis_rotation	pelvis_tilt	pelvis_list	pelvis_tx	pelvis_ty	pelvis_tz	hip_flexion_r	hip_adduction_r	hip_rotation_r	knee_angle_r	knee_rotation_r	knee_adduction_r	knee_angle_r_beta	ankle_angle_r	subtalar_angle_r	mtp_angle_r	hip_flexion_l	hip_adduction_l	hip_rotation_l	knee_angle_l	knee_rotation_l	knee_adduction_l	knee_angle_l_beta	ankle_angle_l	subtalar_angle_l	mtp_angle_l
      4.19000000	      6.86558180	    -40.31687119	      5.75312437	     -0.04243327	      0.62768617	     -1.14219281	    107.62192561	    -45.57057987	      1.51469918	     79.73870544	      0.00000000	      0.00000000	      1.39170295	      5.03022183	      0.00000000	      0.00000000	    102.96401301	    -34.20795893	     -3.21505852	     72.44117974	      0.00000000	      0.00000000	      1.26433710	     -3.60711628	      0.00000000	      0.00000000
      4.19500000	      6.87023401	    -40.31975016	      5.72982690	     -0.04250783	      0.62604416	     -1.14214708	    107.91970230	    -45.63815334	      1.68916534	     80.01992527	      0.00000000	      0.00000000	      1.39661116	      5.08963154	      0.00000000	      0.00000000	    103.27443517	    -34.31465293	     -3.07867402	     72.73939146	      0.00000000	      0.00000000	      1.26954188	     -3.57527057	      0.00000000	      0.00000000
      4.20000000	      6.86107318	    -40.27666597	      5.70797233	     -0.04256979	      0.62441233	     -1.14209162	    108.18013639	    -45.69904963	      1.87188690	     80.30334655	      0.00000000	      0.00000000	      1.40155780	      5.15748789	      0.00000000	      0.00000000	    103.52576470	    -34.43608927	     -2.96369830	     73.03129667	      0.00000000	      0.00000000	      1.27463658	     -3.56244372	      0.00000000	      0.00000000
      4.20500000	      6.94960595	    -40.28790472	      5.63115880	     -0.04260215	      0.62278472	     -1.14204457	    108.38263849	    -45.88061077	      1.90196502	     80.58114390	      0.00000000	      0.00000000	      1.40640628	      5.26149393	      0.00000000	      0.00000000	    103.93433589	    -34.44115221	     -2.69589893	     73.33289817	      0.00000000	      0.00000000	      1.27990052	     -3.57660930	      0.00000000	      0.00000000
      4.21000000	      6.86611929	    -40.30080768	      5.67649511	     -0.04268815	      0.62115409	     -1.14194765	    108.80532275	    -45.80840567	      2.24972161	     80.87307984	      0.00000000	      0.00000000	      1.41150152	      5.34152104	      0.00000000	      0.00000000	    104.15566674	    -34.66605145	     -2.71397746	     73.61537449	      0.00000000	      0.00000000	      1.28483066	     -3.55237990	      0.00000000	      0.00000000
      4.21500000	      6.80222975	    -40.29514424	      5.65853332	     -0.04273845	      0.61958170	     -1.14185025	    109.11233615	    -45.78788932	      2.47147275	     81.14536629	      0.00000000	      0.00000000	      1.41625381	      5.40229942	      0.00000000	      0.00000000	    104.40803015	    -34.84861799	     -2.64233248	     73.89094833	      0.00000000	      0.00000000	      1.28964034	     -3.54709087	      0.00000000	      0.00000000
      4.22000000	      6.87314552	    -40.27862962	      5.66113985	     -0.04275772	      0.61799287	     -1.14178912	    109.38989162	    -45.91653029	      2.64236410	     81.42683066	      0.00000000	      0.00000000	      1.42116629	      5.48540090	      0.00000000	      0.00000000	    104.69952049	    -34.89350633	     -2.50350793	     74.17022688	      0.00000000	      0.00000000	      1.29451467	     -3.53729887	      0.00000000	      0.00000000
      4.22500000	      6.91369377	    -40.28098819	      5.62629847	     -0.04277737	      0.61643286	     -1.14170166	    109.64381556	    -46.02058923	      2.76136071	     81.69944271	      0.00000000	      0.00000000	      1.42592427	      5.57986758	      0.00000000	      0.00000000	    105.02864075	    -34.96290074	     -2.33387898	     74.44894753	      0.00000000	      0.00000000	      1.29937926	     -3.54357136	      0.00000000	      0.00000000
      4.23000000	      6.92757522	    -40.31481496	      5.63212746	     -0.04283096	      0.61491024	     -1.14162220	    109.98266881	    -46.06601358	      2.97719032	     81.96492353	      0.00000000	      0.00000000	      1.43055779	      5.63113923	      0.00000000	      0.00000000	    105.32915355	    -35.06253889	     -2.23542877	     74.71121593	      0.00000000	      0.00000000	      1.30395671	     -3.52147681	      0.00000000	      0.00000000
      4.23500000	      6.86924628	    -40.31849262	      5.63610551	     -0.04285485	      0.61331061	     -1.14150308	    110.32705884	    -46.03375408	      3.23770325	     82.25148588	      0.00000000	      0.00000000	      1.43555924	      5.72813122	      0.00000000	      0.00000000	    105.58279817	    -35.24653882	     -2.17582450	     74.98801477	      0.00000000	      0.00000000	      1.30878776	     -3.52146376	      0.00000000	      0.00000000
      4.24000000	      6.91308953	    -40.30433971	      5.63370847	     -0.04285628	      0.61176580	     -1.14139636	    110.60630991	    -46.13325051	      3.40960800	     82.52559783	      0.00000000	      0.00000000	      1.44034340	      5.79495992	      0.00000000	      0.00000000	    105.86113721	    -35.31980495	     -2.04736892	     75.25219453	      0.00000000	      0.00000000	      1.31339856	     -3.51983502	      0.00000000	      0.00000000
      4.24500000	      6.96339806	    -40.30736223	      5.59812276	     -0.04287510	      0.61018687	     -1.14133653	    110.85717712	    -46.24179890	      3.54054772	     82.79157977	      0.00000000	      0.00000000	      1.44498566	      5.88863603	      0.00000000	      0.00000000	    106.19732879	    -35.36016247	     -1.85489922	     75.53223971	      0.00000000	      0.00000000	      1.31828627	     -3.49650931	      0.00000000	      0.00000000
      4.25000000	      6.95870714	    -40.32591592	      5.63428972	     -0.04287363	      0.60861188	     -1.14123240	    111.23424200	    -46.25513811	      3.81608545	     83.07564977	      0.00000000	      0.00000000	      1.44994362	      5.96868301	      0.00000000	      0.00000000	    106.45427203	    -35.49606597	     -1.80144761	     75.79698191	      0.00000000	      0.00000000	      1.32290690	     -3.48618514	      0.00000000	      0.00000000
      4.25500000	      6.96447341	    -40.33759648	      5.63144539	     -0.04288882	      0.60706824	     -1.14113535	    111.54188322	    -46.29670625	      4.01642524	     83.34258900	      0.00000000	      0.00000000	      1.45460259	      6.05574879	      0.00000000	      0.00000000	    106.74135233	    -35.59914740	     -1.68308345	     76.05743518	      0.00000000	      0.00000000	      1.32745266	     -3.48900589	      0.00000000	      0.00000000
      4.26000000	      6.95214659	    -40.36159466	      5.62803483	     -0.04290288	      0.60546993	     -1.14102919	    111.87774294	    -46.31399806	      4.23978707	     83.61980104	      0.00000000	      0.00000000	      1.45944085	      6.16080852	      0.00000000	      0.00000000	    107.04644750	    -35.72665491	     -1.56964303	     76.33106335	      0.00000000	      0.00000000	      1.33222838	     -3.48991499	      0.00000000	      0.00000000
